<svg xmlns="http://www.w3.org/2000/svg" width="21" height="17" viewBox="0 0 21 17">
    <path fill="#000000" fill-rule="evenodd" d="M20.469.31c-.349 1.017-.963 1.768-1.817 2.342.807-.077 1.572-.3 2.317-.605l.031.039c-.137.183-.269.37-.412.549a8.834 8.834 0 0 1-1.572 1.511c-.06.046-.12.14-.117.21a11.73 11.73 0 0 1-.626 4.242c-.88 2.61-2.417 4.747-4.704 6.327-1.53 1.057-3.232 1.685-5.075 1.943-1.23.172-2.46.18-3.689.002a12.24 12.24 0 0 1-4.71-1.71c-.02-.013-.037-.03-.095-.077 2.362.217 4.453-.361 6.344-1.773-1.99-.166-3.315-1.153-4.045-2.998a4.382 4.382 0 0 0 1.906-.06C2.054 9.603.919 8.204.772 5.973c.625.304 1.235.513 1.955.526-1.08-.787-1.705-1.787-1.864-3.054-.116-.937.072-1.817.55-2.655 2.342 2.729 5.297 4.23 8.895 4.477-.025-.362-.068-.698-.07-1.035-.004-2.063 1.586-3.886 3.645-4.18 1.441-.207 2.688.2 3.744 1.194.052.048.157.08.227.066.912-.178 1.765-.514 2.615-1.004" opacity="1"/>
</svg>
