<svg xmlns="http://www.w3.org/2000/svg" width="20" height="20" viewBox="0 0 20 20">
    <path fill="#000000" fill-rule="evenodd" d="M17.042 17.042h-2.964v-4.641c0-1.107-.02-2.531-1.542-2.531-1.543 0-1.78 1.206-1.78 2.45v4.722H7.792V7.498h2.846v1.304h.04c.395-.75 1.363-1.542 2.806-1.542 3.004 0 3.558 1.977 3.558 4.547v5.235zM4.45 6.193a1.72 1.72 0 1 1 0-3.44 1.72 1.72 0 0 1 0 3.44zm-1.484 10.85h2.967V7.497H2.965v9.544zM18.52 0H1.476C.662 0 0 .646 0 1.442v17.115C0 19.353.662 20 1.476 20H18.52c.816 0 1.481-.647 1.481-1.443V1.442C20 .646 19.335 0 18.52 0z" opacity="1"/>
</svg>
