<svg xmlns="http://www.w3.org/2000/svg" width="25" height="20" viewBox="0 0 25 20">
    <path fill="#000000" fill-rule="evenodd" d="M8.89 17.153l.17-.042c.138-1.065.316-2.128.398-3.198.042-.555.264-.913.67-1.272 3.132-2.776 6.247-5.57 9.356-8.371.2-.18.673-.352.365-.724-.225-.272-.53.018-.754.16-3.884 2.461-7.762 4.931-11.643 7.396-.254.162-.45.299-.324.673.602 1.788 1.177 3.584 1.762 5.378m15.351-16.07c-.334 2.466-.905 5.03-1.454 7.596-.695 3.246-1.465 6.476-2.223 9.708-.413 1.758-1.314 2.065-2.79.988-1.433-1.047-2.877-2.08-4.294-3.151-.406-.307-.668-.317-1.041.056-.83.827-1.738 1.579-2.56 2.414-.566.575-.958.4-1.389-.125-.252-.306-.351-.671-.469-1.029-.543-1.652-1.09-3.304-1.599-4.967-.173-.568-.458-.894-1.055-1.062-1.465-.41-2.911-.885-4.357-1.36C.568 10.006.002 9.86 0 9.29c-.002-.553.429-.862.948-1.056C8.104 5.558 15.254 2.869 22.412.197c1.183-.442 1.86-.137 1.83.887" opacity="1"/>
</svg>
